<svg width="60" height="60" viewBox="0 0 60 60" fill="none" xmlns="http://www.w3.org/2000/svg">
<path d="M2.83591 3.47536L14.6483 0.787372C16.3709 0.395133 18.1404 1.2719 18.8435 2.87547L24.2927 15.3925C24.9372 16.8576 24.5036 18.5881 23.2497 19.6033L16.9334 24.6909C20.9177 32.6741 27.5153 39.1807 35.6363 43.1031L40.8042 36.8849C41.8354 35.6505 43.5932 35.2237 45.0815 35.8582L57.7844 41.2226C59.4133 41.9148 60.3039 43.6453 59.9055 45.3411L57.1868 56.9583C56.8001 58.608 55.3235 59.7617 53.6126 59.7617C24.0583 59.7617 0 36.2043 0 6.98244C0 5.29812 1.17187 3.84453 2.83591 3.47536ZM53.5423 56.07L56.2376 44.5797L43.6518 39.273L36.6792 47.6715C24.5388 42.0648 17.9646 35.5698 12.2928 23.6641L20.824 16.8L15.4334 4.40982L3.76168 7.0632C3.78511 34.1162 26.0622 56.0354 53.5423 56.07Z" fill="#3A5DAE"/>
</svg>
