<svg width="400" height="99" viewBox="0 0 400 99" fill="none" xmlns="http://www.w3.org/2000/svg">
<path d="M49.7376 98.7097C22.2898 98.7097 0 76.5914 0 49.3548C0 22.1183 22.2898 0 49.7376 0C77.1855 0 99.4753 22.1183 99.4753 49.3548C99.4753 76.5914 77.1855 98.7097 49.7376 98.7097ZM49.7376 5.80376C25.5596 5.80376 5.84878 25.3172 5.84878 49.3548C5.84878 73.3925 25.5136 92.9059 49.7376 92.9059C73.9617 92.9059 93.6265 73.3925 93.6265 49.3548C93.6265 25.3172 73.9617 5.80376 49.7376 5.80376Z" fill="white"/>
<path d="M69.8628 54.8388L74.33 35.3711C74.6524 33.9544 73.5931 32.6291 72.1194 32.6291H35.0925L34.2175 28.4248C33.9872 27.3738 33.0662 26.6426 32.0069 26.6426H22.3357C21.0923 26.6426 20.0791 27.648 20.0791 28.8818V30.3442C20.0791 31.5781 21.0923 32.5834 22.3357 32.5834H28.9214L35.553 64.7555C33.9872 65.6695 32.8819 67.3603 32.8819 69.2797C32.8819 72.1587 35.2307 74.5351 38.1781 74.5351C41.0794 74.5351 43.4742 72.2044 43.4742 69.2797C43.4742 67.8173 42.8755 66.492 41.9084 65.5324H61.6653C60.6982 66.492 60.0995 67.8173 60.0995 69.2797C60.0995 72.1587 62.4482 74.5351 65.3956 74.5351C68.297 74.5351 70.6918 72.2044 70.6918 69.2797C70.6918 67.2232 69.4944 65.3953 67.6983 64.5727L68.2049 62.2877C68.5273 60.8711 67.468 59.5458 65.9943 59.5458H40.665L40.0663 56.5297H67.7444C68.7115 56.5754 69.6326 55.8442 69.8628 54.8388ZM52.4086 53.5592C48.6322 53.5592 45.5927 49.5377 45.5927 44.6023C45.5927 39.6668 48.6322 35.6453 52.4086 35.6453C56.185 35.6453 59.2245 39.6668 59.2245 44.6023C59.2245 49.5377 56.185 53.5592 52.4086 53.5592Z" fill="white"/>
<path d="M54.4349 44.2823C54.0205 44.0995 53.5599 43.9624 52.9612 43.8253V41.3576C53.652 41.449 54.3428 41.6775 54.9876 42.0431L55.4942 40.8092C55.1718 40.5807 54.7573 40.4436 54.3428 40.3065C53.8823 40.1694 53.4678 40.078 53.0073 40.078V38.707H51.9941V40.078C51.073 40.1694 50.3822 40.4436 49.8757 40.9006C49.3691 41.3576 49.1388 41.9517 49.1388 42.5914C49.1388 43.1398 49.277 43.5511 49.5533 43.871C49.8296 44.1909 50.152 44.4194 50.5204 44.6022C50.9349 44.785 51.3954 44.9221 51.9941 45.0592V47.5269C51.5336 47.4812 51.073 47.3898 50.6125 47.207C50.152 47.0242 49.7835 46.8414 49.5072 46.5672L48.9546 47.8011C49.277 48.0753 49.6914 48.3038 50.2441 48.4866C50.7967 48.6694 51.3494 48.7608 51.9941 48.8065V50.1775H53.0073V48.8065C53.9284 48.7151 54.6652 48.4409 55.1257 47.9839C55.6323 47.5269 55.8626 46.9785 55.8626 46.2931C55.8626 45.7447 55.7244 45.3334 55.4481 45.0135C55.1718 44.6936 54.8494 44.4651 54.4349 44.2823ZM51.9481 43.5968C51.5336 43.4597 51.2573 43.3226 51.027 43.1855C50.7967 43.0027 50.7046 42.8199 50.7046 42.5457C50.7046 42.2715 50.7967 41.9974 51.027 41.8146C51.2112 41.6318 51.5336 41.4947 51.9481 41.4033V43.5968ZM53.9284 47.1156C53.6981 47.2984 53.3757 47.4355 52.9612 47.4812V45.2877C53.3757 45.4248 53.6981 45.5619 53.9284 45.699C54.1586 45.8818 54.2507 46.1103 54.2507 46.3845C54.2507 46.6586 54.1586 46.9328 53.9284 47.1156Z" fill="white"/>
<path d="M132.312 66.1264C129.318 64.4812 126.969 62.1962 125.266 59.3172C123.562 56.4382 122.687 53.1479 122.687 49.5376C122.687 45.9274 123.562 42.6828 125.266 39.7581C126.969 36.879 129.318 34.5941 132.312 32.9489C135.305 31.3038 138.621 30.4812 142.351 30.4812C145.115 30.4812 147.601 30.9382 149.95 31.8065C152.253 32.6747 154.233 34 155.845 35.6909L154.095 37.4731C151.055 34.5027 147.187 32.9946 142.443 32.9946C139.266 32.9946 136.364 33.7258 133.785 35.1425C131.206 36.5592 129.134 38.5699 127.66 41.0833C126.187 43.5968 125.45 46.4301 125.45 49.5376C125.45 52.6452 126.187 55.4785 127.66 57.9919C129.134 60.5054 131.16 62.5161 133.785 63.9328C136.364 65.3495 139.266 66.0807 142.443 66.0807C147.141 66.0807 151.009 64.5726 154.095 61.5565L155.845 63.3387C154.233 65.0753 152.253 66.3549 149.904 67.2688C147.555 68.1828 145.068 68.5941 142.351 68.5941C138.667 68.5941 135.305 67.7715 132.312 66.1264Z" fill="white"/>
<path d="M181.312 42.7284C183.201 44.5107 184.122 47.1155 184.122 50.5429V68.3198H181.543V63.3386C180.622 64.9838 179.332 66.2634 177.582 67.1773C175.832 68.0913 173.76 68.5483 171.365 68.5483C168.233 68.5483 165.746 67.8171 163.904 66.3548C162.062 64.8924 161.187 62.973 161.187 60.551C161.187 58.2204 162.016 56.3467 163.72 54.8843C165.378 53.422 168.095 52.6908 171.779 52.6908H181.451V50.4515C181.451 47.8467 180.76 45.8359 179.332 44.5107C177.904 43.1397 175.832 42.4542 173.069 42.4542C171.181 42.4542 169.385 42.7741 167.681 43.4139C165.977 44.0537 164.503 44.922 163.305 45.973L161.97 44.0537C163.398 42.8198 165.055 41.8144 167.036 41.129C169.016 40.4435 171.088 40.0779 173.253 40.0779C176.753 40.0779 179.47 40.9462 181.312 42.7284ZM177.72 64.7096C179.378 63.6128 180.575 62.0591 181.404 60.0483V54.7929H171.779C169.016 54.7929 166.99 55.2956 165.746 56.301C164.503 57.3064 163.858 58.6773 163.858 60.4139C163.858 62.2419 164.549 63.6585 165.931 64.7553C167.312 65.8064 169.246 66.3548 171.733 66.3548C174.082 66.3548 176.108 65.8064 177.72 64.7096Z" fill="white"/>
<path d="M201.944 41.723C203.786 40.6263 206.043 40.0779 208.668 40.0779V42.7284L208.023 42.6827C204.892 42.6827 202.451 43.6424 200.655 45.6075C198.905 47.5725 197.984 50.2687 197.984 53.7419V68.3655H195.267V40.3064H197.846V46.43C198.767 44.3736 200.102 42.8198 201.944 41.723Z" fill="white"/>
<path d="M231.465 66.5377C230.774 67.1775 229.945 67.6802 228.886 68C227.872 68.3199 226.767 68.5027 225.662 68.5027C223.221 68.5027 221.333 67.8173 219.997 66.492C218.662 65.1667 218.017 63.2931 218.017 60.871V42.5915H212.813V40.2608H218.017V34.1829H220.734V40.3065H229.715V42.6372H220.734V60.6882C220.734 62.5162 221.195 63.8871 222.07 64.8468C222.945 65.8065 224.28 66.2635 225.984 66.2635C227.734 66.2635 229.208 65.7608 230.359 64.7097L231.465 66.5377Z" fill="white"/>
<path d="M254.814 66.5834C251.636 64.9382 249.195 62.6075 247.353 59.6371C245.557 56.6667 244.636 53.285 244.636 49.5377C244.636 45.7903 245.557 42.4086 247.353 39.4382C249.149 36.4678 251.636 34.1371 254.814 32.492C257.991 30.8468 261.537 29.9785 265.498 29.9785C268.952 29.9785 272.084 30.5726 274.847 31.8065C277.61 33.0403 279.913 34.7769 281.755 37.0618L274.939 43.1855C272.498 40.2608 269.505 38.7984 266.005 38.7984C263.932 38.7984 262.136 39.2554 260.524 40.1237C258.912 41.0377 257.669 42.2715 256.794 43.9167C255.919 45.5618 255.458 47.4355 255.458 49.5377C255.458 51.6398 255.919 53.5135 256.794 55.1586C257.669 56.8038 258.912 58.0377 260.524 58.9516C262.136 59.8656 263.978 60.2769 266.005 60.2769C269.505 60.2769 272.498 58.8145 274.939 55.8898L281.755 62.0135C279.913 64.2984 277.61 66.0807 274.847 67.2688C272.084 68.5027 268.952 69.0968 265.498 69.0968C261.537 69.0968 257.945 68.2285 254.814 66.5834Z" fill="white"/>
<path d="M311.275 61.0081H295.248L292.255 68.3199H281.34L298.058 30.7097H308.604L325.367 68.3199H314.268L311.275 61.0081ZM308.143 53.1936L303.262 41.1748L298.38 53.1936H308.143Z" fill="white"/>
<path d="M332.828 67.9543C329.927 67.2231 327.578 66.2178 325.782 64.9382L329.282 57.078C330.986 58.1748 332.967 59.0887 335.177 59.7742C337.434 60.4597 339.598 60.7796 341.763 60.7796C345.861 60.7796 347.934 59.7742 347.934 57.7178C347.934 56.621 347.335 55.8441 346.184 55.3414C345.033 54.8387 343.144 54.2903 340.519 53.6963C337.664 53.1022 335.269 52.4167 333.381 51.7312C331.447 51.0457 329.835 49.9032 328.453 48.3952C327.072 46.8414 326.381 44.785 326.381 42.1801C326.381 39.8952 327.026 37.8387 328.269 35.9651C329.513 34.1371 331.401 32.6748 333.934 31.578C336.421 30.4812 339.506 29.9785 343.144 29.9785C345.631 29.9785 348.072 30.2527 350.513 30.8011C352.908 31.3495 355.072 32.1721 356.914 33.2231L353.598 41.1291C350.006 39.2097 346.506 38.25 343.098 38.25C340.98 38.25 339.414 38.5699 338.447 39.2097C337.48 39.8495 336.973 40.6721 336.973 41.6317C336.973 42.6371 337.572 43.3683 338.723 43.871C339.875 44.3737 341.717 44.8764 344.296 45.4248C347.197 46.0188 349.592 46.7043 351.48 47.3898C353.368 48.0753 355.026 49.2178 356.408 50.7258C357.789 52.2339 358.48 54.336 358.48 56.9409C358.48 59.1801 357.835 61.2366 356.592 63.0645C355.348 64.8925 353.414 66.3549 350.927 67.4516C348.394 68.5484 345.355 69.0968 341.717 69.0968C338.677 69.0968 335.684 68.6855 332.828 67.9543Z" fill="white"/>
<path d="M399.468 30.7554V68.3656H388.737V53.6505H374.138V68.3199H363.408V30.7554H374.138V44.8763H388.737V30.7554H399.468Z" fill="white"/>
</svg>
