<svg width="59" height="59" viewBox="0 0 59 59" fill="none" xmlns="http://www.w3.org/2000/svg">
<path d="M29.5 0.694336C13.2036 0.694336 0 13.6927 0 29.7358C0 45.7788 13.2036 58.7772 29.5 58.7772C45.7964 58.7772 59 45.7788 59 29.7358C59 13.6927 45.7964 0.694336 29.5 0.694336ZM52.4815 18.4939H42.6679C41.5974 13.2946 39.8012 8.8681 37.5292 5.71804C44.0716 7.84931 49.4482 12.4983 52.4815 18.4939ZM39.9677 29.7358C39.9677 32.4174 39.7774 34.9117 39.4562 37.2304H19.5438C19.2226 34.9117 19.0323 32.4174 19.0323 29.7358C19.0323 27.0541 19.2226 24.5599 19.5438 22.2412H39.4562C39.7774 24.5599 39.9677 27.0541 39.9677 29.7358ZM29.5 4.44162C32.6998 4.44162 36.8036 9.60585 38.7901 18.4939H20.2099C22.1964 9.60585 26.3002 4.44162 29.5 4.44162ZM21.4708 5.71804C19.2107 8.85639 17.4026 13.2829 16.3321 18.4939H6.51855C9.55181 12.4983 14.9284 7.84931 21.4708 5.71804ZM3.80645 29.7358C3.80645 27.1244 4.21089 24.6067 4.96028 22.2412H15.7254C15.4161 24.6418 15.2258 27.1361 15.2258 29.7358C15.2258 32.3355 15.4042 34.8298 15.7254 37.2304H4.96028C4.21089 34.8649 3.80645 32.3472 3.80645 29.7358ZM6.51855 40.9776H16.3321C17.4026 46.177 19.1988 50.6035 21.4708 53.7535C14.9284 51.6223 9.55181 46.9733 6.51855 40.9776ZM29.5 55.0299C26.3002 55.0299 22.1964 49.8657 20.2099 40.9776H38.7901C36.8036 49.8657 32.6998 55.0299 29.5 55.0299ZM37.5292 53.7535C39.7893 50.6152 41.5974 46.1887 42.6679 40.9776H52.4815C49.4482 46.9733 44.0716 51.6223 37.5292 53.7535ZM43.2746 37.2304C43.5839 34.8298 43.7742 32.3355 43.7742 29.7358C43.7742 27.1361 43.5958 24.6418 43.2746 22.2412H54.0397C54.7891 24.6067 55.1935 27.1244 55.1935 29.7358C55.1935 32.3472 54.7891 34.8649 54.0397 37.2304H43.2746Z" fill="#3A5DAE"/>
</svg>
