<svg width="413" height="99" viewBox="0 0 413 99" fill="none" xmlns="http://www.w3.org/2000/svg">
<path d="M122.355 44.531C120.049 43.6632 118.25 42.5214 116.959 41.1512L118.112 39.2786C119.357 40.5574 120.971 41.6079 123.047 42.3844C125.122 43.2065 127.29 43.5718 129.55 43.5718C132.87 43.5718 135.361 42.9324 137.021 41.6993C138.727 40.4661 139.558 38.8219 139.558 36.8579C139.558 35.3051 139.096 34.0719 138.22 33.1584C137.344 32.245 136.237 31.5599 134.899 31.0575C133.562 30.5551 131.809 30.0527 129.55 29.5503C127.013 28.9109 124.984 28.3171 123.416 27.7234C121.894 27.1296 120.556 26.2162 119.496 24.983C118.435 23.7498 117.881 22.1056 117.881 20.0504C117.881 18.3605 118.343 16.8533 119.219 15.4374C120.095 14.0672 121.479 12.9254 123.323 12.1033C125.168 11.2812 127.428 10.8701 130.195 10.8701C132.132 10.8701 133.977 11.1442 135.868 11.6922C137.713 12.2403 139.327 13.0167 140.664 13.9302L139.742 15.9398C138.358 14.9807 136.836 14.2499 135.176 13.7932C133.516 13.2908 131.856 13.0624 130.241 13.0624C127.013 13.0624 124.615 13.7018 122.955 14.9807C121.294 16.2595 120.464 17.9037 120.464 19.959C120.464 21.5119 120.925 22.745 121.802 23.6585C122.678 24.572 123.785 25.257 125.122 25.7595C126.46 26.2619 128.258 26.7643 130.518 27.3123C133.055 27.9517 135.084 28.5455 136.606 29.1392C138.128 29.733 139.419 30.6008 140.48 31.8339C141.541 33.0214 142.094 34.62 142.094 36.6753C142.094 38.3651 141.633 39.8723 140.711 41.2425C139.788 42.6127 138.405 43.7089 136.514 44.531C134.623 45.3531 132.317 45.7641 129.55 45.7641C127.059 45.8555 124.615 45.3988 122.355 44.531Z" fill="white"/>
<path d="M170.227 22.5623C172.117 24.4349 173.04 27.1296 173.04 30.6007V45.5814H170.549V30.8291C170.549 27.9517 169.812 25.7594 168.336 24.2522C166.86 22.745 164.785 22.0143 162.156 22.0143C159.112 22.0143 156.714 22.9277 154.961 24.7089C153.209 26.4902 152.332 28.9108 152.332 31.9709V45.6271H149.842V9.13452H152.332V25.3027C153.209 23.5215 154.546 22.1513 156.299 21.1921C158.051 20.233 160.126 19.7306 162.479 19.7306C165.753 19.7763 168.336 20.6897 170.227 22.5623Z" fill="white"/>
<path d="M186.83 44.12C184.847 43.0239 183.325 41.471 182.172 39.4614C181.065 37.4974 180.466 35.2595 180.466 32.7475C180.466 30.2811 181.019 28.0432 182.172 26.0336C183.279 24.0696 184.847 22.5168 186.83 21.375C188.813 20.2788 191.027 19.6851 193.472 19.6851C195.916 19.6851 198.13 20.2331 200.113 21.375C202.096 22.4711 203.618 24.024 204.771 26.0336C205.878 27.9975 206.477 30.2355 206.477 32.7475C206.477 35.2138 205.924 37.4518 204.771 39.4614C203.664 41.4253 202.096 42.9782 200.113 44.12C198.13 45.2162 195.916 45.8099 193.472 45.8099C190.981 45.8099 188.767 45.2618 186.83 44.12ZM198.775 42.2017C200.343 41.2883 201.589 40.0095 202.511 38.3652C203.433 36.721 203.895 34.8484 203.895 32.7475C203.895 30.6465 203.433 28.7739 202.511 27.1297C201.589 25.4855 200.343 24.2067 198.775 23.2932C197.207 22.3798 195.409 21.923 193.425 21.923C191.442 21.923 189.644 22.3798 188.076 23.2932C186.507 24.2067 185.262 25.4855 184.34 27.1297C183.417 28.7739 182.956 30.6465 182.956 32.7475C182.956 34.8484 183.417 36.721 184.34 38.3652C185.262 40.0095 186.507 41.2883 188.076 42.2017C189.644 43.1152 191.442 43.5719 193.425 43.5719C195.409 43.5719 197.207 43.1152 198.775 42.2017Z" fill="white"/>
<path d="M233.596 21.4206C235.533 22.5168 237.055 24.0696 238.162 26.0336C239.268 27.9975 239.822 30.2355 239.822 32.7475C239.822 35.2595 239.268 37.5431 238.162 39.507C237.055 41.471 235.533 43.0238 233.596 44.12C231.659 45.2161 229.445 45.7642 227.047 45.7642C224.787 45.7642 222.711 45.2161 220.867 44.1657C219.022 43.1152 217.592 41.608 216.531 39.7354V55.1271H214.041V19.9591H216.439V25.9879C217.454 24.024 218.93 22.4711 220.774 21.3749C222.619 20.2788 224.741 19.7307 227.047 19.7307C229.491 19.7764 231.659 20.3245 233.596 21.4206ZM232.258 42.2017C233.826 41.2883 235.072 40.0094 235.994 38.3652C236.916 36.721 237.377 34.8484 237.377 32.7475C237.377 30.6465 236.916 28.7739 235.994 27.1297C235.072 25.4855 233.826 24.2066 232.258 23.2932C230.69 22.3797 228.891 21.923 226.908 21.923C224.925 21.923 223.127 22.3797 221.558 23.2932C219.99 24.2066 218.745 25.4855 217.823 27.1297C216.9 28.7739 216.439 30.6465 216.439 32.7475C216.439 34.8484 216.9 36.721 217.823 38.3652C218.745 40.0094 219.99 41.2883 221.558 42.2017C223.127 43.1152 224.925 43.5719 226.908 43.5719C228.891 43.5719 230.69 43.1152 232.258 42.2017Z" fill="white"/>
<path d="M140.341 84.9058H126.09L123.462 91.574H113.73L128.581 57.1824H137.943L152.84 91.574H142.924L140.341 84.9058ZM137.574 77.7351L133.239 66.728L128.904 77.7351H137.574Z" fill="white"/>
<path d="M187.153 57.228V91.6197H179.313L164.462 73.2592V91.574H155.146V57.1824H162.986L177.837 75.4972V57.1824H187.153V57.228Z" fill="white"/>
<path d="M211.458 79.288V91.6197H201.911V79.151L189.043 57.228H199.097L207.076 70.8842L215.055 57.228H224.279L211.458 79.288Z" fill="white"/>
<path d="M280.636 57.228L269.705 91.6197H259.513L253.056 70.7015L246.323 91.6197H236.131L225.2 57.228H235.024L241.803 79.1966L248.906 57.228H257.668L264.448 79.3793L271.504 57.228H280.636Z" fill="white"/>
<path d="M315.641 57.228V91.6197H306.094V78.1919H293.089V91.6197H283.542V57.228H293.089V70.1534H306.094V57.228H315.641Z" fill="white"/>
<path d="M347.971 84.0836V91.6197H320.945V57.228H347.372V64.764H330.4V70.5188H345.296V77.7808H330.354V84.0836H347.971Z" fill="white"/>
<path d="M366.512 82.4851H361.3V91.6197H351.753V57.228H367.157C370.201 57.228 372.83 57.7304 375.09 58.7809C377.35 59.8314 379.056 61.2929 380.301 63.2112C381.5 65.1294 382.146 67.3674 382.146 69.9707C382.146 72.4371 381.593 74.6294 380.44 76.4563C379.287 78.3289 377.673 79.7447 375.551 80.7952L382.838 91.6197H372.646L366.512 82.4851ZM371.031 66.2256C370.017 65.3578 368.541 64.9011 366.604 64.9011H361.3V74.9491H366.604C368.541 74.9491 370.017 74.538 371.031 73.6702C372.046 72.8025 372.507 71.5693 372.507 69.9707C372.553 68.3265 372.046 67.0934 371.031 66.2256Z" fill="white"/>
<path d="M413 84.0836V91.6197H385.974V57.228H412.4V64.764H395.428V70.5188H410.371V77.7808H395.428V84.0836H413Z" fill="white"/>
<path d="M49.809 98.6533C22.3218 98.6533 0 76.5476 0 49.3266C0 22.1056 22.3218 0 49.809 0C77.2962 0 99.6181 22.1056 99.6181 49.3266C99.6181 76.5476 77.2962 98.6533 49.809 98.6533ZM49.809 5.80045C25.5963 5.80045 5.85717 25.3027 5.85717 49.3266C5.85717 73.3505 25.5502 92.8528 49.809 92.8528C74.0218 92.8528 93.7609 73.3505 93.7609 49.3266C93.7609 25.3027 74.0679 5.80045 49.809 5.80045Z" fill="white"/>
<path d="M49.9007 24.709C39.7083 24.709 31.499 32.8844 31.499 42.9324C31.499 49.692 33.805 53.9396 46.0267 73.3048C47.8253 76.1822 52.0222 76.1822 53.8209 73.3048C66.0425 53.8939 68.3485 49.6463 68.3485 42.9324C68.3485 32.8387 60.0931 24.709 49.9007 24.709ZM37.4946 42.7041C37.4946 35.8988 43.075 30.3724 49.9468 30.3724C56.8186 30.3724 62.3991 35.8988 62.3991 42.7041C62.3991 49.5093 56.8186 55.0357 49.9468 55.0357C43.075 55.0357 37.4946 49.5093 37.4946 42.7041Z" fill="white"/>
</svg>
