<svg width="75" height="60" viewBox="0 0 75 60" fill="none" xmlns="http://www.w3.org/2000/svg">
<path d="M74.729 16.9453L73.0767 15.2812C72.7134 14.918 72.1158 14.9062 71.7525 15.2812L58.2528 28.3711L52.0068 22.1133C51.6435 21.75 51.0459 21.75 50.6826 22.1133L49.0186 23.7656C48.6553 24.1289 48.6553 24.7266 49.0186 25.0898L57.245 33.3398C57.7957 33.8906 58.6863 33.8906 59.2371 33.3398L74.7173 18.2695C75.0923 17.9062 75.0923 17.3086 74.729 16.9453ZM36.7493 33.75C33.3861 33.75 31.7689 35.625 26.2495 35.625C20.7301 35.625 19.1246 33.75 15.7497 33.75C7.05455 33.75 0 40.8047 0 49.5V54.375C0 57.4805 2.51948 60 5.62489 60H46.8741C49.9795 60 52.499 57.4805 52.499 54.375V49.5C52.499 40.8047 45.4444 33.75 36.7493 33.75ZM48.749 54.375C48.749 55.4062 47.9053 56.25 46.8741 56.25H5.62489C4.59366 56.25 3.74993 55.4062 3.74993 54.375V49.5C3.74993 42.8789 9.12873 37.5 15.7497 37.5C18.0465 37.5 20.3316 39.375 26.2495 39.375C32.1556 39.375 34.4524 37.5 36.7493 37.5C43.3702 37.5 48.749 42.8789 48.749 49.5V54.375ZM26.2495 30C34.5345 30 41.2492 23.2852 41.2492 15C41.2492 6.71484 34.5345 0 26.2495 0C17.9645 0 11.2498 6.71484 11.2498 15C11.2498 23.2852 17.9645 30 26.2495 30ZM26.2495 3.75C32.4486 3.75 37.4993 8.80078 37.4993 15C37.4993 21.1992 32.4486 26.25 26.2495 26.25C20.0504 26.25 14.9997 21.1992 14.9997 15C14.9997 8.80078 20.0504 3.75 26.2495 3.75Z" fill="#3A5DAE"/>
</svg>
